:SAMPLES-PER-SECOND 30
:FULLY-SPECIFIED
:DEGREES
265
root  -63.7902 39.1192 -5.68848 46.5297 82.5899 48.6596
RightUpLeg  -22.1237 -8.07876 -6.41106
RightLeg  0.055527 2.90703 0.37708
RightFoot  -5.27346 -0.628063 11.1675
RightToes  -3.0268e-009 0 -3.6325e-017
Spine  7.61191 -0.41977 -7.67352
Spine1  6.22667 -1.24289 2.0039
HEad  -14.72 1.75624 -3.274
LeftShoulder1  -0.771935 5.43205 -33.8589
LeftArm  6.31208 -8.72468 -42.3525
LeftForeArm  24.2461 -37.3502 -7.06733
LeftHand  0.00694502 6.76459 3.28486
RightShoulder  -1.46048 -7.18687 33.137
RightArm  20.0086 -14.9209 38.6036
RightForeArm  17.5786 11.1313 7.37948
RightHand  -0.160345 4.25974 -2.21658
LeftUpLeg  9.54796 5.83123 -8.36416
LeftLeg  12.4435 7.19858 0.0630744
LeftFoot  -18.7381 0.289932 2.75777
LeftToes  2.52475e-009 -1.26109e-010 3.16044e-011
266
root  -62.6272 38.8447 -5.53863 45.2051 82.4862 47.3202
RightUpLeg  -23.2198 -7.70997 -5.56922
RightLeg  4.02587 -0.277779 0.510028
RightFoot  -4.35439 -0.624489 9.56692
RightToes  -3.0268e-009 0 -3.6325e-017
Spine  7.55611 -0.482937 -7.19923
Spine1  6.42947 -1.27795 1.93525
HEad  -14.9976 2.03011 -3.67072
LeftShoulder1  -0.761746 5.41973 -33.5865
LeftArm  6.40119 -8.27417 -42.9598
LeftForeArm  24.7906 -37.7148 -7.13698
LeftHand  0.0215668 7.40721 3.26793
RightShoulder  -1.46559 -7.19102 33.2274
RightArm  18.5282 -14.1 38.2582
RightForeArm  17.6205 10.6376 7.17828
RightHand  -0.134181 4.69851 -1.82503
LeftUpLeg  11.306 6.37328 -7.98869
LeftLeg  13.0881 6.43979 0.258964
LeftFoot  -20.5376 0.258051 1.68037
LeftToes  2.52475e-009 -1.26109e-010 3.16044e-011
267
root  -61.3984 38.6275 -5.36254 44.2768 83.0697 46.2462
RightUpLeg  -24.2293 -7.82352 -4.07907
RightLeg  9.01798 -0.954994 0.364883
RightFoot  -2.80278 -0.480009 6.74636
RightToes  -3.0268e-009 0 -3.6325e-017
Spine  7.4591 -0.721291 -6.51108
Spine1  6.55096 -1.69509 2.62371
HEad  -14.6447 2.3026 -3.70792
LeftShoulder1  -0.768249 5.41966 -33.9194
LeftArm  6.81621 -7.36814 -42.9862
LeftForeArm  25.2627 -37.5802 -7.07018
LeftHand  -0.0131281 6.75184 1.85166
RightShoulder  -1.42567 -7.10821 33.0324
RightArm  16.7055 -12.9353 38.1716
RightForeArm  18.3092 9.78826 6.94934
RightHand  -0.0959046 4.16384 -1.42648
LeftUpLeg  13.0515 7.37828 -6.6389
LeftLeg  13.7834 4.32894 0.176215
LeftFoot  -21.8074 0.173011 0.440858
LeftToes  2.52475e-009 -1.26109e-010 3.16044e-011
268
root  -60.1708 38.5845 -5.18041 41.3503 84.5669 43.0338
RightUpLeg  -25.2772 -7.65313 -2.27932
RightLeg  13.0241 0.192401 0.434915
RightFoot  2.09816 0.0119731 -0.172128
RightToes  -3.0268e-009 0 -3.6325e-017
Spine  7.55865 -0.896197 -4.67193
Spine1  6.82355 -2.14346 3.67916
HEad  -14.8713 1.64682 -4.15024
LeftShoulder1  -0.663172 5.16339 -33.7923
LeftArm  8.41672 -6.34098 -43.6342
LeftForeArm  24.5788 -36.4436 -6.79555
LeftHand  -0.0112578 6.80833 1.87046
RightShoulder  -1.53127 -7.35794 33.2226
RightArm  15.196 -11.7887 37.6911
RightForeArm  16.979 9.5068 6.60433
RightHand  -0.178682 4.58923 -2.36691
LeftUpLeg  14.6311 7.77996 -4.55436
LeftLeg  14.2781 1.97612 0.340137
LeftFoot  -21.8938 -0.0130732 -1.54514
LeftToes  2.52475e-009 -1.26109e-010 3.16044e-011
269
root  -58.8309 38.385 -4.94912 29.8908 85.289 31.5714
RightUpLeg  -26.136 -5.38411 -1.13459
RightLeg  18.122 -0.633509 -0.427888
RightFoot  4.73989 0.173622 -1.03909
RightToes  -3.0268e-009 0 -3.6325e-017
Spine  7.78256 -0.995235 -2.4623
Spine1  6.74507 -2.05159 3.49179
HEad  -14.9798 2.24706 -4.17538
LeftShoulder1  -0.70541 5.2543 -34.1265
LeftArm  10.3553 -5.47774 -44.059
LeftForeArm  23.7608 -34.4004 -6.30335
LeftHand  0.00341876 7.37835 2.36915
RightShoulder  -1.51958 -7.33685 33.137
RightArm  14.0097 -10.2276 37.6536
RightForeArm  16.5167 9.67611 6.23207
RightHand  -0.12519 4.00343 -1.8198
LeftUpLeg  15.23 7.81851 -2.54219
LeftLeg  17.8882 0.576544 0.52742
LeftFoot  -22.3124 -0.304683 -4.5434
LeftToes  2.52475e-009 -1.26109e-010 3.16044e-011
270
root  -57.5322 38.178 -4.7428 9.84256 84.7133 11.5145
RightUpLeg  -27.0069 -3.85436 0.436596
RightLeg  23.6572 -0.581719 -0.504975
RightFoot  2.95587 0.391024 -2.95894
RightToes  -3.0268e-009 0 -3.6325e-017
Spine  8.25913 -0.788467 0.588494
Spine1  6.57511 -1.27736 2.49278
HEad  -15.6452 1.96684 -4.4905
LeftShoulder1  -0.665139 5.15423 -34.1301
LeftArm  12.1454 -4.18771 -44.563
LeftForeArm  22.805 -31.3716 -5.59157
LeftHand  -0.00598953 7.09269 2.12583
RightShoulder  -1.44375 -7.16666 32.8956
RightArm  12.7195 -7.86701 38.3361
RightForeArm  16.1524 8.72333 6.09827
RightHand  -0.138051 4.46605 -1.90529
LeftUpLeg  14.485 7.62553 -0.674077
LeftLeg  23.9248 -0.00437918 0.309574
LeftFoot  -21.5808 -0.641495 -8.6384
LeftToes  2.52475e-009 -1.26109e-010 3.16044e-011
271
root  -56.3435 38.0349 -4.51957 -6.19211 84.5845 -4.28275
RightUpLeg  -26.6516 -3.70358 2.16614
RightLeg  27.4008 -0.751193 -0.662366
RightFoot  0.907531 0.490842 -4.50639
RightToes  -3.0268e-009 0 -3.6325e-017
Spine  9.14352 -1.05432 3.18671
Spine1  6.69256 -1.13384 2.50028
HEad  -15.5408 2.05233 -4.43225
LeftShoulder1  -0.679643 5.18552 -34.2396
LeftArm  13.4184 -2.47719 -44.7781
LeftForeArm  22.176 -28.6295 -4.97285
LeftHand  -0.0190787 7.5397 1.05596
RightShoulder  -1.28332 -6.80686 32.3299
RightArm  11.9432 -4.75576 39.6889
RightForeArm  16.6029 7.46732 6.12807
RightHand  -0.183378 4.59357 -2.42665
LeftUpLeg  11.9729 6.98406 1.68614
LeftLeg  32.7347 -1.71069 -0.841258
LeftFoot  -17.8575 -0.630806 -13.4521
LeftToes  2.52475e-009 -1.26109e-010 3.16044e-011
272
root  -55.2409 37.9111 -4.28539 -18.434 84.9868 -16.8814
RightUpLeg  -26.6005 -4.06423 3.42121
RightLeg  30.5338 -1.12748 -0.96636
RightFoot  -2.07638 0.396878 -5.05706
RightToes  -3.0268e-009 0 -3.6325e-017
Spine  9.49775 -1.13402 5.1288
Spine1  6.60799 -0.880717 2.74885
HEad  -15.1161 1.39032 -4.19816
LeftShoulder1  -0.62319 5.05131 -34.1081
LeftArm  17.3057 -1.95428 -45.4138
LeftForeArm  19.4847 -24.8473 -4.35086
LeftHand  -0.00126843 7.96091 1.80583
RightShoulder  -1.23678 -6.71898 31.9406
RightArm  11.713 -1.79416 40.6791
RightForeArm  16.7593 7.61927 6.17125
RightHand  -0.169505 3.66114 -2.42562
LeftUpLeg  6.34248 5.05218 3.1316
LeftLeg  43.9944 -1.79273 -1.38706
LeftFoot  -8.7577 0.320238 -15.1748
LeftToes  2.52475e-009 -1.26109e-010 3.16044e-011
273
root  -54.1691 37.866 -4.08375 -27.9651 84.528 -26.5652
RightUpLeg  -25.7987 -3.87735 4.59384
RightLeg  32.48 -1.34676 -1.18708
RightFoot  -4.51764 0.287789 -5.32133
RightToes  -3.0268e-009 0 -3.6325e-017
Spine  9.85084 -0.876717 7.49315
Spine1  6.61104 -0.0525925 1.91347
HEad  -15.2027 0.49245 -3.78072
LeftShoulder1  -0.549803 4.87011 -34.0672
LeftArm  19.0816 -1.62597 -45.7036
LeftForeArm  19.2435 -21.3994 -4.54309
LeftHand  -0.00510399 8.28835 1.46436
RightShoulder  -1.21151 -6.66814 31.7574
RightArm  11.2003 1.24785 41.6096
RightForeArm  16.9123 8.6282 6.01926
RightHand  -0.151609 3.84447 -2.17323
LeftUpLeg  0.133775 3.40929 3.97035
LeftLeg  54.3855 -0.774718 -0.703069
LeftFoot  3.35013 1.32454 -10.3554
LeftToes  2.52475e-009 -1.26109e-010 3.16044e-011
274
root  -53.1151 37.8612 -3.8873 -32.3247 83.882 -30.4394
RightUpLeg  -23.9931 -3.04133 5.344
RightLeg  33.8014 -1.85656 -1.60547
RightFoot  -6.932 0.159093 -5.34212
RightToes  -3.0268e-009 0 -3.6325e-017
Spine  10.3888 -0.700705 9.48854
Spine1  7.24512 0.797155 0.729271
HEad  -15.224 -0.306402 -3.13946
LeftShoulder1  -0.492162 4.73974 -33.6724
LeftArm  15.3697 -0.787603 -45.7524
LeftForeArm  23.5402 -18.6661 -6.05045
LeftHand  0.0150519 9.13319 1.93299
RightShoulder  -1.18613 -6.61949 31.5387
RightArm  11.7678 5.0955 42.7334
RightForeArm  15.1986 9.77431 6.1434
RightHand  -0.168863 4.42989 -2.30729
LeftUpLeg  -4.54232 2.33652 4.63446
LeftLeg  61.954 -0.835438 -1.15074
LeftFoot  6.84379 1.02174 -6.50756
LeftToes  2.52475e-009 -1.26109e-010 3.16044e-011
275
root  -52.0191 38.0196 -3.68883 -30.2723 83.9024 -28.068
RightUpLeg  -21.7385 -3.019 5.19821
RightLeg  34.0165 -2.01263 -1.7331
RightFoot  -8.8943 0.0566812 -5.48479
RightToes  -3.0268e-009 0 -3.6325e-017
Spine  10.4351 -0.555438 9.63489
Spine1  7.66523 1.12142 0.342401
HEad  -14.7684 -0.626315 -3.07383
LeftShoulder1  -0.506832 4.77461 -33.7258
LeftArm  11.1575 0.221377 -45.05
LeftForeArm  27.5346 -16.252 -7.38437
LeftHand  -0.0196912 9.15142 0.882652
RightShoulder  -1.15537 -6.54472 31.4598
RightArm  14.0747 9.33588 43.6519
RightForeArm  14.0272 12.0666 6.26491
RightHand  -0.215993 3.11554 -3.16758
LeftUpLeg  -9.05468 1.0568 4.40345
LeftLeg  66.6741 -1.25707 -2.4692
LeftFoot  3.62463 0.716108 -5.64282
LeftToes  2.52475e-009 -1.26109e-010 3.16044e-011
276
root  -50.9224 38.201 -3.5072 -27.0032 83.898 -24.6934
RightUpLeg  -19.502 -3.16448 4.90623
RightLeg  33.7539 -1.87235 -1.61901
RightFoot  -10.5682 -0.0324476 -5.59546
RightToes  -3.0268e-009 0 -3.6325e-017
Spine  10.4634 -0.364445 9.85391
Spine1  7.46346 1.49461 -0.248538
HEad  -14.1051 -1.17183 -3.30884
LeftShoulder1  -0.481817 4.71354 -33.6701
LeftArm  8.25704 1.92229 -44.0752
LeftForeArm  29.8902 -14.6695 -8.0971
LeftHand  -0.0356611 9.24747 0.398355
RightShoulder  -1.15573 -6.57072 31.1442
RightArm  16.3068 12.883 44.9139
RightForeArm  12.3106 14.8509 5.77355
RightHand  -0.229319 3.68601 -3.18827
LeftUpLeg  -13.4267 -0.141408 3.98215
LeftLeg  68.4955 -1.29667 -2.87568
LeftFoot  1.82019 0.601618 -5.2893
LeftToes  2.52475e-009 -1.26109e-010 3.16044e-011
277
root  -49.7974 38.401 -3.32098 -22.8403 83.7544 -20.3776
RightUpLeg  -16.8455 -3.05378 4.52282
RightLeg  32.8781 -1.84768 -1.55635
RightFoot  -12.365 -0.129804 -5.16347
RightToes  -3.0268e-009 0 -3.6325e-017
Spine  10.4699 -0.0554924 10.04
Spine1  7.22239 1.95383 -1.05886
HEad  -13.5688 -1.21346 -3.67105
LeftShoulder1  -0.519554 4.80416 -33.7706
LeftArm  5.68905 3.14923 -43.0624
LeftForeArm  32.0155 -13.3263 -8.54161
LeftHand  -0.0809749 9.83788 -0.549668
RightShoulder  -1.06807 -6.39766 30.3715
RightArm  17.7528 15.2953 46.2996
RightForeArm  10.1968 18.7584 4.80041
RightHand  -0.262042 4.30473 -3.41588
LeftUpLeg  -17.0543 -0.979178 3.69741
LeftLeg  67.6033 -1.70384 -3.81776
LeftFoot  -0.773361 0.387095 -4.13714
LeftToes  2.52475e-009 -1.26109e-010 3.16044e-011
278
root  -48.68 38.5939 -3.13528 -17.0389 83.6318 -14.5793
RightUpLeg  -14.2695 -3.06041 3.91699
RightLeg  31.7711 -1.63133 -1.35569
RightFoot  -13.8917 -0.206794 -5.05469
RightToes  -3.0268e-009 0 -3.6325e-017
Spine  10.5321 0.483808 10.1809
Spine1  6.55353 2.66779 -2.25789
HEad  -13.2648 -1.67727 -4.03427
LeftShoulder1  -0.38901 4.48785 -33.3891
LeftArm  3.01697 4.35692 -42.292
LeftForeArm  34.9432 -12.1495 -8.70151
LeftHand  -0.181371 10.2423 -2.86904
RightShoulder  -1.0475 -6.37197 29.9762
RightArm  16.9277 16.9557 46.9512
RightForeArm  9.77854 23.4635 4.50671
RightHand  -0.282255 4.55573 -3.58093
LeftUpLeg  -20.1471 -1.35263 3.23199
LeftLeg  64.2046 -2.03599 -3.98354
LeftFoot  -3.04587 0.259333 -3.32826
LeftToes  2.52475e-009 -1.26109e-010 3.16044e-011
279
root  -47.5732 38.752 -2.96363 -12.9836 83.9866 -10.557
RightUpLeg  -11.8228 -3.78786 3.27021
RightLeg  30.6922 -1.29058 -1.08882
RightFoot  -15.1247 -0.275618 -5.24267
RightToes  -3.0268e-009 0 -3.6325e-017
Spine  10.2942 0.764111 9.89888
Spine1  6.55173 2.87401 -2.75352
HEad  -13.8009 -1.82183 -4.32818
LeftShoulder1  -0.471493 4.68666 -33.7144
LeftArm  1.22205 4.62698 -41.2376
LeftForeArm  36.687 -10.9701 -8.93672
LeftHand  -0.131562 9.73064 -1.96709
RightShoulder  -0.999715 -6.30296 29.1659
RightArm  14.0236 18.6245 47.8392
RightForeArm  12.6045 28.5462 5.4856
RightHand  -0.308437 4.45922 -3.91797
LeftUpLeg  -22.6011 -1.5087 2.75729
LeftLeg  58.6324 -2.20587 -3.37416
LeftFoot  -4.47529 0.201272 -2.92809
LeftToes  2.52475e-009 -1.26109e-010 3.16044e-011
